<?xml version="1.0" encoding="UTF-8"?>
<svg id="Layer_1" data-name="Layer 1" xmlns="http://www.w3.org/2000/svg" viewBox="0 0 416.82 329.98">
  <defs>
    <style>
      .cls-1 {
        stroke: #000;
      }

      .cls-1, .cls-2, .cls-3 {
        stroke-miterlimit: 10;
      }

      .cls-1, .cls-2, .cls-3, .cls-4 {
        fill: none;
      }

      .cls-2, .cls-3 {
        stroke: #863b00;
      }

      .cls-5 {
        font-size: 160.21px;
      }

      .cls-5, .cls-6, .cls-7 {
        fill: #f60;
        font-family: FuturaBT-Bold, 'Futura Md BT';
        font-weight: 700;
      }

      .cls-3 {
        stroke-width: 4px;
      }

      .cls-3, .cls-4 {
        stroke-linecap: round;
      }

      .cls-4 {
        stroke: #488b66;
        stroke-linejoin: round;
        stroke-width: .2px;
      }

      .cls-8 {
        fill: #619f5f;
      }

      .cls-6 {
        font-size: 257.56px;
      }

      .cls-7 {
        font-size: 148.81px;
      }
    </style>
  </defs>
  <path class="cls-1" d="M16.76,34.76h241.02V290.85H16.76c-8.32,0-15.08-6.76-15.08-15.08V49.84c0-8.32,6.76-15.08,15.08-15.08Z"/>
  <path class="cls-1" d="M257.78,34.76h143.37c8.37,0,15.16,6.79,15.16,15.16V193.29h-158.54V34.76h0Z"/>
  <path class="cls-1" d="M257.78,193.29h158.54v82.35c0,8.4-6.82,15.21-15.21,15.21h-143.32v-97.56h0Z"/>
  <rect class="cls-1" x="257.78" y="229.88" width="60.98" height="60.98"/>
  <rect class="cls-1" x="257.78" y="193.29" width="36.59" height="36.59"/>
  <rect class="cls-1" x="294.36" y="193.29" width="24.39" height="24.39"/>
  <rect class="cls-1" x="306.56" y="217.68" width="12.2" height="12.2"/>
  <text class="cls-5" transform="translate(6.05 137.38)"><tspan x="0" y="0">mo</tspan></text>
  <text class="cls-6" transform="translate(0 268.98)"><tspan x="0" y="0">ni</tspan></text>
  <text class="cls-7" transform="translate(262.67 164.8)"><tspan x="0" y="0">fit</tspan></text>
  <path d="M237.66,34.76h20.12v19.51s-.61-19.51-20.12-19.51Z"/>
  <path d="M298.63,229.88h20.12v19.51s-.61-19.51-20.12-19.51Z"/>
  <path d="M274.24,193.29h20.12v19.51s-.61-19.51-20.12-19.51Z"/>
  <path d="M396.19,193.29h20.12v19.51s-.61-19.51-20.12-19.51Z"/>
  <path d="M277.9,34.76h-20.12s0,19.51,0,19.51c0,0,.61-19.51,20.12-19.51Z"/>
  <path d="M237.66,290.85h20.12v-19.51s-.61,19.51-20.12,19.51Z"/>
  <path d="M396.19,193.29h20.12v-19.51s-.61,19.51-20.12,19.51Z"/>
  <path d="M274.24,229.88h20.12v-19.51s-.61,19.51-20.12,19.51Z"/>
  <path d="M298.63,290.85h20.12v-19.51s-.61,19.51-20.12,19.51Z"/>
  <path d="M298.63,217.68h20.12v-19.51s-.61,19.51-20.12,19.51Z"/>
  <path d="M277.9,290.85h-20.12s0-19.51,0-19.51c0,0,.61,19.51,20.12,19.51Z"/>
  <path d="M277.9,229.88h-20.12s0-19.51,0-19.51c0,0,.61,19.51,20.12,19.51Z"/>
  <path d="M277.9,193.29h-20.12s0-19.51,0-19.51c0,0,.61,19.51,20.12,19.51Z"/>
  <path d="M338.88,290.85h-20.12s0-19.51,0-19.51c0,0,.61,19.51,20.12,19.51Z"/>
  <path d="M277.9,229.88h-20.12s0,19.51,0,19.51c0,0,.61-19.51,20.12-19.51Z"/>
  <path d="M314.49,193.29h-20.12s0,19.51,0,19.51c0,0,.61-19.51,20.12-19.51Z"/>
  <path d="M277.9,193.29h-20.12s0,19.51,0,19.51c0,0,.61-19.51,20.12-19.51Z"/>
  <path d="M338.88,193.29h-20.12s0,19.51,0,19.51c0,0,.61-19.51,20.12-19.51Z"/>
  <rect x="293.15" y="217.68" width="25.61" height="12.2"/>
  <path class="cls-3" d="M208.1,63.9s-.96-17.22,9.14-21.66"/>
  <path class="cls-2" d="M211.92,45.64s-1.07-5.61-6.5-8.15"/>
  <path class="cls-8" d="M195,25.25s6.52-1.12,10.71,4.55c3.29,4.45,1.57,8.7,1.57,8.7,0,0-8.28,.75-11.28-2.25-1.63-1.63-3.25-8.23-1-11Z"/>
  <path class="cls-4" d="M196,26.25s5.78,3.75,10.5,11.5"/>
  <path class="cls-4" d="M195,29.25s2.89-1.38,4.44-.19"/>
  <path class="cls-4" d="M196,32.25s3.9-3.43,6-.47c0,0-2-2.53,0-3.53"/>
  <path class="cls-4" d="M197,34.25s4.55-3.43,7-.47"/>
  <path class="cls-4" d="M198,36.25s4.84-1.38,7.44-.19"/>
  <path class="cls-4" d="M204.29,34.49s-2.29-2.53-.29-4.38"/>
  <path class="cls-4" d="M199.62,29.23s-.62-.98,.38-1.98"/>
</svg>