<?xml version="1.0" encoding="UTF-8"?>
<svg id="Layer_1" data-name="Layer 1" xmlns="http://www.w3.org/2000/svg" viewBox="0 0 500 500">
  <defs>
    <style>
      .cls-1 {
        stroke: #000;
      }

      .cls-1, .cls-2, .cls-3 {
        stroke-miterlimit: 10;
      }

      .cls-1, .cls-2, .cls-3, .cls-4 {
        fill: none;
      }

      .cls-5 {
        fill: #f60;
      }

      .cls-2, .cls-3 {
        stroke: #863b00;
      }

      .cls-3 {
        stroke-width: 4px;
      }

      .cls-3, .cls-4 {
        stroke-linecap: round;
      }

      .cls-4 {
        stroke: #488b66;
        stroke-linejoin: round;
        stroke-width: .2px;
      }

      .cls-6 {
        fill: #619f5f;
      }
    </style>
  </defs>
  <path class="cls-1" d="M57.76,121.51h241.02V377.6H57.76c-8.32,0-15.08-6.76-15.08-15.08V136.59c0-8.32,6.76-15.08,15.08-15.08Z"/>
  <path class="cls-1" d="M298.78,121.51h143.37c8.37,0,15.16,6.79,15.16,15.16v143.37h-158.54V121.51h0Z"/>
  <path class="cls-1" d="M298.78,280.04h158.54v82.35c0,8.4-6.82,15.21-15.21,15.21h-143.32v-97.56h0Z"/>
  <rect class="cls-1" x="298.78" y="316.63" width="60.98" height="60.98"/>
  <rect class="cls-1" x="298.78" y="280.04" width="36.59" height="36.59"/>
  <rect class="cls-1" x="335.37" y="280.04" width="24.39" height="24.39"/>
  <rect class="cls-1" x="347.56" y="304.43" width="12.2" height="12.2"/>
  <g>
    <path class="cls-5" d="M161.89,224.12v-43.1c0-6.83-.85-11.55-2.54-14.16-1.69-2.61-4.63-3.91-8.8-3.91-5.22,0-8.84,1.81-10.87,5.44-2.03,3.62-3.05,11.04-3.05,22.25v33.48h-26.91v-43.1c0-6.94-.83-11.68-2.5-14.24-1.67-2.55-4.59-3.83-8.76-3.83-5.22,0-8.87,1.79-10.95,5.36-2.09,3.57-3.13,11.02-3.13,22.33v33.48h-27.07v-79.01h27.38v13.77c3.29-5.58,7.08-9.69,11.38-12.32,4.3-2.63,9.37-3.95,15.21-3.95,6.41,0,11.67,1.24,15.76,3.72,4.09,2.48,7.03,6.19,8.8,11.15,3.08-5.01,6.83-8.73,11.26-11.19,4.43-2.45,9.65-3.68,15.65-3.68,4.75,0,8.9,.8,12.48,2.39,3.57,1.59,6.56,3.98,8.96,7.16,1.93,2.5,3.3,5.42,4.11,8.76,.81,3.34,1.21,8.76,1.21,16.27v46.94h-27.61Z"/>
    <path class="cls-5" d="M292.99,184.86c0,5.68-1.11,11.08-3.32,16.19-2.22,5.11-5.44,9.7-9.66,13.77-4.28,4.07-9.06,7.15-14.35,9.23-5.29,2.08-10.91,3.13-16.86,3.13s-11.72-1.04-17.01-3.13c-5.29-2.08-10.03-5.16-14.2-9.23-4.17-3.96-7.35-8.51-9.54-13.65-2.19-5.14-3.29-10.57-3.29-16.31s1.08-11.24,3.25-16.35c2.16-5.11,5.36-9.7,9.58-13.77,4.12-4.02,8.83-7.04,14.12-9.07,5.29-2.03,10.99-3.05,17.09-3.05s11.79,1.02,17.05,3.05c5.27,2.03,9.99,5.06,14.16,9.07,4.28,4.12,7.51,8.74,9.7,13.85,2.19,5.11,3.29,10.53,3.29,16.27Zm-27.69,0c0-5.89-1.49-10.53-4.46-13.92-2.97-3.39-6.99-5.08-12.05-5.08s-9.14,1.7-12.09,5.08c-2.95,3.39-4.42,8.03-4.42,13.92s1.46,10.52,4.38,13.88c2.92,3.36,6.96,5.05,12.12,5.05s9.14-1.68,12.09-5.05c2.95-3.36,4.42-7.99,4.42-13.88Z"/>
  </g>
  <g>
    <path class="cls-5" d="M57.48,355.73v-127.02h41v25.78c5.95-10.31,12.83-17.86,20.62-22.64,7.8-4.78,17.14-7.17,28.04-7.17,8.22,0,15.53,1.32,21.95,3.96,6.41,2.64,11.63,6.44,15.66,11.38,3.35,4.28,5.74,9.48,7.17,15.59,1.42,6.12,2.14,15.26,2.14,27.42v72.69h-44.9v-68.04c0-10.14-1.66-17.52-4.97-22.13-3.31-4.61-8.61-6.92-15.91-6.92-9.31,0-16.1,3.44-20.37,10.31-4.28,6.88-6.41,18.03-6.41,33.45v53.32H57.48Z"/>
    <path class="cls-5" d="M224.61,189.1c0-6.79,2.41-12.58,7.23-17.35,4.82-4.78,10.63-7.17,17.42-7.17s12.93,2.35,17.67,7.04c4.74,4.7,7.11,10.52,7.11,17.48s-2.41,12.87-7.23,17.73c-4.82,4.86-10.67,7.29-17.54,7.29s-12.49-2.47-17.36-7.42c-4.86-4.95-7.29-10.82-7.29-17.61Zm2.26,166.63v-127.02h44.9v127.02h-44.9Z"/>
  </g>
  <g>
    <path class="cls-5" d="M315.73,251.55v-55.08h-11.04v-18.31h11.04v-15.04c0-8.52,2.33-14.94,6.98-19.25,4.65-4.31,11.6-6.47,20.85-6.47,1.31,0,2.87,.12,4.69,.36,1.82,.24,3.77,.58,5.85,1.02v19.76c-1.16-.44-2.24-.76-3.23-.98-.99-.22-1.9-.33-2.72-.33-2.42,0-4.19,.73-5.3,2.18s-1.67,3.8-1.67,7.05v11.7h12.93v18.31h-12.93v55.08h-25.43Z"/>
    <path class="cls-5" d="M364.85,155.27c0-3.92,1.39-7.27,4.18-10.03,2.79-2.76,6.14-4.14,10.06-4.14s7.47,1.36,10.21,4.07c2.74,2.71,4.11,6.08,4.11,10.1s-1.39,7.44-4.18,10.25c-2.79,2.81-6.17,4.21-10.14,4.21s-7.22-1.43-10.03-4.29c-2.81-2.86-4.21-6.25-4.21-10.17Zm1.31,96.27v-73.39h25.94v73.39h-25.94Z"/>
    <path class="cls-5" d="M415.86,251.55v-55.08h-10.97v-18.31h10.97v-21.87h25.5v21.87h10.97v18.31h-10.97v55.08h-25.5Z"/>
  </g>
  <path d="M278.66,121.51h20.12v19.51s-.61-19.51-20.12-19.51Z"/>
  <path d="M339.63,316.63h20.12v19.51s-.61-19.51-20.12-19.51Z"/>
  <path d="M315.24,280.04h20.12v19.51s-.61-19.51-20.12-19.51Z"/>
  <path d="M437.19,280.04h20.12v19.51s-.61-19.51-20.12-19.51Z"/>
  <path d="M318.9,121.51h-20.12s0,19.51,0,19.51c0,0,.61-19.51,20.12-19.51Z"/>
  <path d="M278.66,377.6h20.12v-19.51s-.61,19.51-20.12,19.51Z"/>
  <path d="M437.19,280.04h20.12v-19.51s-.61,19.51-20.12,19.51Z"/>
  <path d="M315.24,316.63h20.12v-19.51s-.61,19.51-20.12,19.51Z"/>
  <path d="M339.63,377.6h20.12v-19.51s-.61,19.51-20.12,19.51Z"/>
  <path d="M339.63,304.43h20.12v-19.51s-.61,19.51-20.12,19.51Z"/>
  <path d="M318.9,377.6h-20.12s0-19.51,0-19.51c0,0,.61,19.51,20.12,19.51Z"/>
  <path d="M318.9,316.63h-20.12s0-19.51,0-19.51c0,0,.61,19.51,20.12,19.51Z"/>
  <path d="M318.9,280.04h-20.12s0-19.51,0-19.51c0,0,.61,19.51,20.12,19.51Z"/>
  <path d="M379.88,377.6h-20.12s0-19.51,0-19.51c0,0,.61,19.51,20.12,19.51Z"/>
  <path d="M318.9,316.63h-20.12s0,19.51,0,19.51c0,0,.61-19.51,20.12-19.51Z"/>
  <path d="M355.49,280.04h-20.12s0,19.51,0,19.51c0,0,.61-19.51,20.12-19.51Z"/>
  <path d="M318.9,280.04h-20.12s0,19.51,0,19.51c0,0,.61-19.51,20.12-19.51Z"/>
  <path d="M379.88,280.04h-20.12s0,19.51,0,19.51c0,0,.61-19.51,20.12-19.51Z"/>
  <rect x="334.15" y="304.43" width="25.61" height="12.2"/>
  <path class="cls-3" d="M249.1,150.65s-.96-17.22,9.14-21.66"/>
  <path class="cls-2" d="M252.92,132.39s-1.07-5.61-6.5-8.15"/>
  <path class="cls-6" d="M236,112s6.52-1.12,10.71,4.55c3.29,4.45,1.57,8.7,1.57,8.7,0,0-8.28,.75-11.28-2.25-1.63-1.63-3.25-8.23-1-11Z"/>
  <path class="cls-4" d="M237,113s5.78,3.75,10.5,11.5"/>
  <path class="cls-4" d="M236,116s2.89-1.38,4.44-.19"/>
  <path class="cls-4" d="M237,119s3.9-3.43,6-.47c0,0-2-2.53,0-3.53"/>
  <path class="cls-4" d="M238,121s4.55-3.43,7-.47"/>
  <path class="cls-4" d="M239,123s4.84-1.38,7.44-.19"/>
  <path class="cls-4" d="M245.29,121.24s-2.29-2.53-.29-4.38"/>
  <path class="cls-4" d="M240.62,115.98s-.62-.98,.38-1.98"/>
</svg>